<svg width="680" height="620" viewBox="0 0 680 620" xmlns="http://www.w3.org/2000/svg" font-family="'Segoe UI', system-ui, -apple-system, sans-serif">
<defs>
<marker id="arrow" viewBox="0 0 10 10" refX="8" refY="5" markerWidth="6" markerHeight="6" orient="auto-start-reverse"><path d="M2 1L8 5L2 9" fill="none" stroke="context-stroke" stroke-width="1.5" stroke-linecap="round" stroke-linejoin="round"/></marker>
</defs>

<text x="40" y="30" font-size="14" font-weight="500" fill="#2C2C2A">Developer workflow</text>

<g>
<rect x="40" y="44" width="140" height="56" rx="8" fill="#F1EFE8" stroke="#5F5E5A" stroke-width="0.5"/>
<text x="110" y="68" font-size="14" font-weight="500" fill="#2C2C2A" text-anchor="middle">Developer push</text>
<text x="110" y="86" font-size="12" fill="#5F5E5A" text-anchor="middle">Commit code</text>
</g>
<line x1="180" y1="72" x2="222" y2="72" stroke="#888780" stroke-width="1.5" marker-end="url(#arrow)"/>
<g>
<rect x="222" y="44" width="140" height="56" rx="8" fill="#F1EFE8" stroke="#5F5E5A" stroke-width="0.5"/>
<text x="292" y="68" font-size="14" font-weight="500" fill="#2C2C2A" text-anchor="middle">Image built</text>
<text x="292" y="86" font-size="12" fill="#5F5E5A" text-anchor="middle">Docker build</text>
</g>
<line x1="292" y1="100" x2="292" y2="136" stroke="#888780" stroke-width="1.5" marker-end="url(#arrow)"/>

<rect x="40" y="136" width="600" height="210" rx="16" fill="#E1F5EE" stroke="#0F6E56" stroke-width="0.5"/>
<text x="60" y="162" font-size="14" font-weight="500" fill="#085041">Sprint 1 — orchestration layer (this repo)</text>

<g>
<rect x="200" y="178" width="180" height="56" rx="8" fill="#9FE1CB" stroke="#0F6E56" stroke-width="1"/>
<text x="290" y="202" font-size="14" font-weight="500" fill="#04342C" text-anchor="middle">scanner.py</text>
<text x="290" y="220" font-size="12" fill="#0F6E56" text-anchor="middle">Run, parse, gate, report</text>
</g>

<g>
<rect x="440" y="178" width="160" height="56" rx="8" fill="#CECBF6" stroke="#534AB7" stroke-width="0.5"/>
<text x="520" y="202" font-size="14" font-weight="500" fill="#26215C" text-anchor="middle">Trivy engine</text>
<text x="520" y="220" font-size="12" fill="#3C3489" text-anchor="middle">Scans the image</text>
</g>
<line x1="380" y1="198" x2="438" y2="198" stroke="#534AB7" stroke-width="1.5" marker-end="url(#arrow)"/>
<text x="409" y="190" font-size="12" fill="#3C3489" text-anchor="middle">runs</text>
<line x1="438" y1="216" x2="380" y2="216" stroke="#534AB7" stroke-width="1.5" marker-end="url(#arrow)"/>
<text x="409" y="232" font-size="12" fill="#3C3489" text-anchor="middle">JSON</text>

<g>
<rect x="60" y="178" width="120" height="56" rx="8" fill="#FAC775" stroke="#BA7517" stroke-width="0.5"/>
<text x="120" y="202" font-size="14" font-weight="500" fill="#412402" text-anchor="middle">policy.yaml</text>
<text x="120" y="220" font-size="12" fill="#854F0B" text-anchor="middle">Thresholds</text>
</g>
<line x1="180" y1="206" x2="198" y2="206" stroke="#BA7517" stroke-width="1.5" marker-end="url(#arrow)"/>

<g>
<rect x="240" y="270" width="200" height="56" rx="8" fill="#F5C4B3" stroke="#993C1D" stroke-width="1"/>
<text x="340" y="294" font-size="14" font-weight="500" fill="#4A1B0C" text-anchor="middle">Policy gate</text>
<text x="340" y="312" font-size="12" fill="#993C1D" text-anchor="middle">Count vs thresholds</text>
</g>
<line x1="290" y1="234" x2="320" y2="268" stroke="#993C1D" stroke-width="1.5" marker-end="url(#arrow)"/>

<line x1="340" y1="346" x2="340" y2="380" stroke="#888780" stroke-width="1.5" marker-end="url(#arrow)"/>

<g>
<rect x="40" y="380" width="180" height="56" rx="8" fill="#C0DD97" stroke="#639922" stroke-width="0.5"/>
<text x="130" y="404" font-size="14" font-weight="500" fill="#173404" text-anchor="middle">Exit 0 — pass</text>
<text x="130" y="422" font-size="12" fill="#3B6D11" text-anchor="middle">Build continues</text>
</g>
<g>
<rect x="250" y="380" width="180" height="56" rx="8" fill="#FAC775" stroke="#BA7517" stroke-width="0.5"/>
<text x="340" y="404" font-size="14" font-weight="500" fill="#412402" text-anchor="middle">Exit 1 — policy fail</text>
<text x="340" y="422" font-size="12" fill="#854F0B" text-anchor="middle">Build blocked</text>
</g>
<g>
<rect x="460" y="380" width="180" height="56" rx="8" fill="#F7C1C1" stroke="#A32D2D" stroke-width="0.5"/>
<text x="550" y="404" font-size="14" font-weight="500" fill="#501313" text-anchor="middle">Exit 2 — tool error</text>
<text x="550" y="422" font-size="12" fill="#A32D2D" text-anchor="middle">Alert / investigate</text>
</g>
<line x1="320" y1="346" x2="130" y2="378" stroke="#639922" stroke-width="1.5" marker-end="url(#arrow)"/>
<line x1="360" y1="346" x2="550" y2="378" stroke="#A32D2D" stroke-width="1.5" marker-end="url(#arrow)"/>

<rect x="40" y="470" width="600" height="120" rx="16" fill="none" stroke="#888780" stroke-width="0.5" stroke-dasharray="5 5"/>
<text x="60" y="494" font-size="14" font-weight="500" fill="#5F5E5A">Later sprints</text>
<g>
<rect x="60" y="508" width="130" height="56" rx="8" fill="#F1EFE8" stroke="#5F5E5A" stroke-width="0.5"/>
<text x="125" y="532" font-size="14" font-weight="500" fill="#2C2C2A" text-anchor="middle">CI/CD gating</text>
<text x="125" y="550" font-size="12" fill="#5F5E5A" text-anchor="middle">Actions, Jenkins</text>
</g>
<g>
<rect x="205" y="508" width="130" height="56" rx="8" fill="#F1EFE8" stroke="#5F5E5A" stroke-width="0.5"/>
<text x="270" y="532" font-size="14" font-weight="500" fill="#2C2C2A" text-anchor="middle">Reporting</text>
<text x="270" y="550" font-size="12" fill="#5F5E5A" text-anchor="middle">Jinja2, Slack</text>
</g>
<g>
<rect x="350" y="508" width="130" height="56" rx="8" fill="#F1EFE8" stroke="#5F5E5A" stroke-width="0.5"/>
<text x="415" y="532" font-size="14" font-weight="500" fill="#2C2C2A" text-anchor="middle">Dashboard</text>
<text x="415" y="550" font-size="12" fill="#5F5E5A" text-anchor="middle">Prometheus, Grafana</text>
</g>
<g>
<rect x="495" y="508" width="125" height="56" rx="8" fill="#F1EFE8" stroke="#5F5E5A" stroke-width="0.5"/>
<text x="557" y="532" font-size="14" font-weight="500" fill="#2C2C2A" text-anchor="middle">Storage</text>
<text x="557" y="550" font-size="12" fill="#5F5E5A" text-anchor="middle">SQLite, Postgres</text>
</g>
<line x1="340" y1="436" x2="340" y2="468" stroke="#888780" stroke-width="1.5" marker-end="url(#arrow)"/>
</svg>
